<?xml version="1.0" standalone="no"?><!DOCTYPE svg PUBLIC "-//W3C//DTD SVG 1.1//EN" "http://www.w3.org/Graphics/SVG/1.1/DTD/svg11.dtd"><svg t="1571794433322" class="icon" viewBox="0 0 1024 1024" version="1.1" xmlns="http://www.w3.org/2000/svg" p-id="6107" xmlns:xlink="http://www.w3.org/1999/xlink" width="200" height="200"><defs><style type="text/css"></style></defs><path d="M889.484929 511.844723q10.202295 92.840888-11.222525 171.398562-9.182066 33.667575-26.525968 66.825035t-46.420444 61.723887-70.905953 49.991247-99.982495 31.627116l0 130.589381-191.803153 0 0-131.60961q-59.173313-10.202295-101.512839-32.647345t-71.416068-51.011477-46.420444-61.723887-26.525968-66.825035q-21.42482-77.537445-10.202295-169.358103l8.161836 0q0-18.364132 5.101148-100.492609t24.485509-208.63694q4.080918-27.546198 11.73264-55.092395t15.813558-51.011477q-1.02023-2.040459-1.02023-4.080918t-1.02023-4.080918q-4.080918-32.647345 15.303443-57.642969t51.011477-29.076542q32.647345-4.080918 57.132854 15.303443t29.586657 51.011477q4.080918 30.606886-14.283214 55.092395t-47.950788 30.606886q-6.121377 27.546198-12.242754 64.274461-9.182066 49.991247-12.752869 98.45215t-5.101148 88.249855-0.510115 68.355379 1.02023 38.768722l62.234002 0q-5.101148 57.132854 11.222525 101.002724 7.141607 18.364132 18.874246 36.728263t31.117001 32.13723 46.420444 22.44505 64.784576 8.671951 64.274461-8.671951 44.379985-22.44505 28.056312-32.13723 15.303443-36.728263q11.222525-43.86987 1.02023-99.982495l64.274461 0q0-3.060689 1.02023-29.076542t0-66.31492-5.611262-91.310544-13.773099-105.083642q-3.060689-18.364132-6.121377-34.687804t-5.101148-30.606886q-30.606886-5.101148-48.971018-30.096771t-14.283214-55.60251q4.080918-31.627116 29.076542-51.011477t56.622739-15.303443q32.647345 4.080918 51.521592 29.076542t14.793328 57.642969l0 1.02023q7.141607 24.485509 14.283214 54.072165t12.242754 59.173313q7.141607 47.950788 12.752869 97.431921t9.692181 92.330773 6.121377 74.476756 3.060689 43.86987l9.182066 0z" p-id="6108"></path></svg>