<?xml version="1.0" standalone="no"?><!DOCTYPE svg PUBLIC "-//W3C//DTD SVG 1.1//EN" "http://www.w3.org/Graphics/SVG/1.1/DTD/svg11.dtd"><svg t="1571794342976" class="icon" viewBox="0 0 1024 1024" version="1.1" xmlns="http://www.w3.org/2000/svg" p-id="4152" xmlns:xlink="http://www.w3.org/1999/xlink" width="200" height="200"><defs><style type="text/css"></style></defs><path d="M420.52104 530.708621a117.042596 117.042596 0 0 1-15.752704 61.593075 114.207109 114.207109 0 0 1-58.127481 36.231221l8.821515 13.074745a122.083461 122.083461 0 0 0 60.647913-39.066708 127.911962 127.911962 0 0 0 19.533354-71.674806v-51.511344h-14.807542z m25.834436 48.990912l-10.239258 9.609149a383.893413 383.893413 0 0 1 53.559196 52.141453l10.711839-10.554312a390.824603 390.824603 0 0 0-54.031777-51.19629z m-98.13935-97.036661h-31.505409q-10.554312-13.074745-15.752705-19.060773A315.054094 315.054094 0 0 0 340.02472 409.570322v-12.129583h-90.735579v14.492489H322.539217a234.400246 234.400246 0 0 1-31.505409 42.532302l-22.368841-22.053786-11.657001 7.088717a582.850073 582.850073 0 0 1 42.217248 44.2651h-57.812426v14.492488h41.902195v119.878083q0 10.554312-9.924204 10.554312-7.403771 0-24.889274-1.102689l3.465595 14.177434h26.937125a17.327975 17.327975 0 0 0 19.2183-19.848408v-124.603894h35.75864a243.536814 243.536814 0 0 1-15.752705 41.902194l12.759691 5.040866a226.208839 226.208839 0 0 0 16.697867-51.826398zM417.055445 447.376813h-47.258114v131.062503h15.752705V461.554247h87.585038v116.885069h14.492488V447.376813H432.80815a261.967479 261.967479 0 0 0 6.458609-36.073694h58.757589v-14.807542h-138.151221v14.807542h63.798454A262.755114 262.755114 0 0 1 417.055445 447.376813z m513.538173-120.193137A149.650695 149.650695 0 1 0 723.918133 111.844203l-3.308068 3.780649a441.075731 441.075731 0 0 0-420.754742 1.575271 85.379659 85.379659 0 0 0-5.35592-6.93119A147.287789 147.287789 0 0 0 38.990533 208.56581a144.767356 144.767356 0 0 0 52.298979 111.371622 56.867264 56.867264 0 0 0 15.752705 9.60915 441.075731 441.075731 0 0 0 173.279752 549.769394 15.752705 15.752705 0 0 0-2.835487 3.150541l-63.010819 109.166243a15.752705 15.752705 0 0 0 27.252179 15.752705l63.010819-109.166244a15.752705 15.752705 0 0 0 1.417743-4.25323 441.075731 441.075731 0 0 0 395.392888 8.033879 15.752705 15.752705 0 0 0 1.260217 3.78065l63.010818 110.268932a15.752705 15.752705 0 0 0 21.581206 5.828501 15.752705 15.752705 0 0 0 5.8285-21.738732l-63.010818-110.268933a14.650015 14.650015 0 0 0-1.732798-1.890325 441.075731 441.075731 0 0 0 190.765254-552.762407 65.688779 65.688779 0 0 0 11.657001-8.03388z m-194.860957-204.785161a133.89799 133.89799 0 1 1 182.888902 194.388376 60.332859 60.332859 0 0 0-5.35592 5.040866A442.808529 442.808529 0 0 0 734.472445 123.501205zM103.261568 310.013228A130.117341 130.117341 0 0 1 185.963268 78.763523a131.692611 131.692611 0 0 1 96.721606 42.059722c1.57527 1.732798 2.993014 2.835487 4.410758 4.25323A442.808529 442.808529 0 0 0 111.610502 318.204635a52.29898 52.29898 0 0 0-8.348934-8.191407zM936.8947 504.08655A425.323027 425.323027 0 1 1 511.571674 78.763523a425.323027 425.323027 0 0 1 425.323026 425.323027zM487.942617 47.258114h63.010818a23.629057 23.629057 0 1 0 0-47.258114h-63.010818a23.629057 23.629057 0 1 0 0 47.258114z m96.249025 439.815515a333.484758 333.484758 0 0 1-44.580154 63.010819 27.567233 27.567233 0 0 1-7.088717 4.568284l4.25323 14.492488a556.543057 556.543057 0 0 0 90.420525-20.478516v-14.177434a477.306952 477.306952 0 0 1-71.98986 17.800556 608.369455 608.369455 0 0 0 71.202225-110.268932l-14.807543-5.35592q-12.444637 23.786584-19.060772 35.75864a420.754742 420.754742 0 0 1-45.36779 7.718825 450.842408 450.842408 0 0 0 43.950046-91.050633l-15.752704-5.670974a451.314989 451.314989 0 0 1-41.11456 92.153323 20.478516 20.478516 0 0 1-6.773663 6.301081l3.938176 14.492489q23.314003-3.623122 52.771561-9.294096z m-54.189304 141.774342a617.663551 617.663551 0 0 0 100.659783-24.889273v-15.752705A592.144169 592.144169 0 0 1 527.324378 614.355483z m187.77224-64.901143A505.031712 505.031712 0 0 0 669.09872 498.888157l-12.444636 7.876353a485.183304 485.183304 0 0 1 48.833384 66.633941z m-24.101638-179.580834l-15.752705-1.732797a228.886799 228.886799 0 0 1-51.353817 106.645811l9.60915 12.75969a231.092178 231.092178 0 0 0 36.23122-55.607047h82.229119q-0.787635 132.165192-3.938176 157.527047a26.779598 26.779598 0 0 1-30.40272 23.314003q-14.492488 0-34.025842-0.787636l3.623122 13.862381q22.998949 0.787635 32.293044 0.787635 38.909181 0 43.162411-31.50541 3.938176-35.128531 3.938176-177.532981h-89.790416a342.621327 342.621327 0 0 0 14.177434-47.730696z" p-id="4153"></path></svg>